<?xml version="1.0" standalone="no"?>
<!DOCTYPE svg PUBLIC "-//W3C//DTD SVG 20010904//EN"
 "http://www.w3.org/TR/2001/REC-SVG-20010904/DTD/svg10.dtd">
<svg version="1.0" xmlns="http://www.w3.org/2000/svg"
 width="225.000000pt" height="225.000000pt" viewBox="0 0 225.000000 225.000000"
 preserveAspectRatio="xMidYMid meet">
<metadata>
Created by potrace 1.11, written by Peter Selinger 2001-2013
</metadata>
<g transform="translate(0.000000,225.000000) scale(0.100000,-0.100000)"
fill="#000000" stroke="none">
<path d="M1008 2190 c-283 -51 -511 -259 -589 -535 -35 -122 -33 -294 5 -440
95 -373 310 -743 624 -1075 l80 -85 47 45 c72 69 204 224 287 336 166 225 287
465 360 719 40 139 51 224 46 345 -15 320 -233 586 -553 677 -62 17 -243 25
-307 13z m211 -161 c139 -22 267 -92 357 -193 56 -63 119 -191 135 -274 16
-85 6 -231 -21 -309 -58 -166 -195 -303 -366 -365 -81 -30 -246 -36 -334 -14
-218 56 -389 234 -435 451 -19 88 -19 151 0 240 64 306 361 514 664 464z"/>
<path d="M1160 1843 c-14 -9 -30 -24 -37 -33 -19 -23 -15 -86 8 -131 11 -23
21 -54 21 -70 1 -37 11 -37 38 1 26 37 22 62 -20 115 -36 46 -37 52 -5 99 13
20 23 36 22 36 -1 0 -14 -8 -27 -17z"/>
<path d="M1066 1769 c-30 -24 -35 -76 -11 -123 8 -15 15 -40 15 -54 l0 -25 25
23 c14 13 25 29 25 35 0 7 -11 29 -25 49 -29 43 -31 63 -9 94 19 27 14 28 -20
1z"/>
<path d="M888 1539 c-32 -18 -21 -76 52 -275 16 -45 46 -54 179 -54 108 0 121
2 146 23 16 12 53 36 84 52 68 37 96 73 96 125 0 45 -25 84 -75 118 -32 21
-41 22 -249 22 -128 0 -223 -5 -233 -11z"/>
<path d="M892 1183 c3 -17 22 -18 223 -18 201 0 220 1 223 18 3 16 -13 17
-223 17 -210 0 -226 -1 -223 -17z"/>
</g>
</svg>
